<svg width="32" height="32" viewBox="0 0 32 32" fill="none" xmlns="http://www.w3.org/2000/svg">
  <path d="M27.3 8.7002H16.4H5.4L3 31.2002H16.4H29.8L27.3 8.7002Z" stroke="black" stroke-miterlimit="10"></path>
  <path d="M22.2 13.1002C22.8627 13.1002 23.4 12.5629 23.4 11.9002C23.4 11.2375 22.8627 10.7002 22.2 10.7002C21.5373 10.7002 21 11.2375 21 11.9002C21 12.5629 21.5373 13.1002 22.2 13.1002Z" fill="black"></path>
  <path d="M10.5999 13.1002C11.2626 13.1002 11.7999 12.5629 11.7999 11.9002C11.7999 11.2375 11.2626 10.7002 10.5999 10.7002C9.93716 10.7002 9.3999 11.2375 9.3999 11.9002C9.3999 12.5629 9.93716 13.1002 10.5999 13.1002Z" fill="black"></path>
  <path d="M22.1999 11.9V6.8C22.1999 3.6 19.5999 1 16.3999 1C13.1999 1 10.5999 3.6 10.5999 6.8V11.9" stroke="black" stroke-miterlimit="10"></path>
  <path d="M13.6002 15.5C11.7002 15.5 10.2002 17 10.2002 18.9C10.2002 20.2 11.1002 21.3 12.3002 22.6C13.5002 23.8 14.9002 25 16.0002 26.2C16.1002 26.3 16.2002 26.3 16.3002 26.3C16.4002 26.3 16.5002 26.3 16.6002 26.2C17.7002 25.1 19.2002 23.8 20.3002 22.6C21.5002 21.4 22.4002 20.2 22.4002 18.9C22.4002 17 20.9002 15.5 19.0002 15.5C17.9002 15.5 17.0002 16.1 16.2002 17C15.6002 16.1 14.7002 15.5 13.6002 15.5Z" stroke="black" stroke-miterlimit="10" stroke-linecap="round" stroke-linejoin="round"></path>
</svg>